PathFileType	4	(X/Y/Z)	RBDS010\RBDS010runT45.trc
DataRate	CameraRate	NumFrames	NumMarkers	Units	OrigDataRate	OrigDataStartFrame	OrigNumFrames
150.000000	150.000000	5	32	mm	150.000000	0	4500
Frame#	Time	L.ASIS			L.Heel.Bottom			L.Heel.Lateral			L.Heel.Top			L.Iliac.Crest			L.MT5			L.PSIS			L.Shank.Bottom.Lateral			L.Shank.Bottom.Medial			L.Shank.Top.Lateral			L.Shank.Top.Medial			L.Thigh.Bottom.Lateral			L.Thigh.Bottom.Medial			L.Thigh.Top.Lateral			L.Thigh.Top.Medial			R.ASIS			R.ASY			R.Heel.Bottom			R.Heel.Lateral			R.Heel.Top			R.Iliac.Crest			R.MT1			R.MT5			R.PSIS			R.Shank.Bottom.Lateral			R.Shank.Bottom.Medial			R.Shank.Top.Lateral			R.Shank.Top.Medial			R.Thigh.Bottom.Lateral			R.Thigh.Bottom.Medial			R.Thigh.Top.Lateral			R.Thigh.Top.Medial			
		X1	Y1	Z1	X2	Y2	Z2	X3	Y3	Z3	X4	Y4	Z4	X5	Y5	Z5	X6	Y6	Z6	X7	Y7	Z7	X8	Y8	Z8	X9	Y9	Z9	X10	Y10	Z10	X11	Y11	Z11	X12	Y12	Z12	X13	Y13	Z13	X14	Y14	Z14	X15	Y15	Z15	X16	Y16	Z16	X17	Y17	Z17	X18	Y18	Z18	X19	Y19	Z19	X20	Y20	Z20	X21	Y21	Z21	X22	Y22	Z22	X23	Y23	Z23	X24	Y24	Z24	X25	Y25	Z25	X26	Y26	Z26	X27	Y27	Z27	X28	Y28	Z28	X29	Y29	Z29	X30	Y30	Z30	X31	Y31	Z31	X32	Y32	Z32	

1	0	2372.628912336101	931.9467820444165	854.9451950243949	1612.957636697196	426.7691684991189	897.8194087005598	1629.376464650282	388.5481172673402	860.1998721872156	1663.166263823136	418.8023954152399	899.7452018303144	2347.981742780697	1034.354172433173	826.7765736556291	1629.014176314107	225.5294975134159	878.3658887772675	2211.957517560547	1014.098161653623	914.529615572236	1740.937351963326	392.3923614630476	855.9386444562277	1724.203870439489	426.5023721542898	893.961005696691	1806.844715627472	436.5436103985778	843.3485429523114	1789.924552862505	472.7610335299789	879.5703929378685	2097.010121088188	600.0567408131774	829.3836339472531	2042.885546354502	628.9337818961045	869.2406391225365	2132.49620206484	702.6532661713478	808.1972998865375	2082.701305833662	729.5021535293562	847.673807607496	2360.80561747432	945.9221066171281	1078.676900263246	2631.819101182032	134.4169046518465	1041.777255312662	2463.338736080714	57.37640761864382	1001.555887476888	2483.695499764824	70.39042172493981	1050.995245766496	2466.549034086652	105.2669338131582	1011.276388686611	2290.778698931221	1033.172778761475	1120.510428275803	2672.809972585061	99.01713647271599	982.8464541066578	2644.343107215748	70.06874422582753	1088.705754895634	2203.083061145587	1013.661106544082	1014.09730761057	2505.871688134304	208.3637475251695	1075.38897289247	2464.985081612783	205.4380918368553	1044.42231524377	2483.438162537907	288.0925670029525	1093.585437466616	2442.315475618694	281.2747613614022	1059.559312408878	2414.48006845361	602.7968610204267	1128.012871565592	2367.200272743252	573.4202494570709	1080.098256893451	2346.375968186402	688.232442135766	1138.571489184297	2300.910599864008	660.8507444164044	1095.240929962609	
2	0.006666666666666667	2374.354132943528	930.3009984909102	854.7965319837494	1619.711425767081	445.5666570071531	898.4710149050919	1631.340303240792	406.539977797422	860.6714610388578	1668.812657116197	433.9314186982304	898.6396190914032	2348.406068183448	1033.44053681174	826.5113679524029	1619.194578976256	245.5009886739789	880.1747564572894	2213.223679241563	1011.44165017155	912.9948309500226	1742.241992386058	403.9291118643274	855.3740746116262	1727.578809739957	437.9055187069887	894.3892011375921	1810.136649628496	444.6845407454365	843.2218463677718	1795.433817227573	480.6678361624426	880.3648322591697	2102.100128566388	594.2695039960132	829.3526215153476	2048.876071916692	621.7705201149255	871.0963297969872	2135.544371487382	697.6860765842679	809.0894057846386	2086.870687989282	723.2172827906311	850.2667345815285	2360.946906714869	945.344139621972	1077.991151564957	2638.28639854414	130.7182807461099	1040.583386507505	2470.595249019955	53.77140791233982	998.0024901579073	2490.707752808536	65.42257001844203	1047.940671122998	2473.248746731233	101.3533490651883	1009.371475461287	2290.833969045849	1033.384351970417	1119.584651502347	2679.642792466666	97.80237719985364	980.9650401069966	2651.403078232576	65.32232851391679	1085.987108936622	2203.735866926846	1012.12680853998	1012.641876645026	2508.559528269311	203.6826439266086	1074.237195713356	2468.426977333452	199.6379001352031	1042.328829507924	2483.171904538765	282.7465894228069	1092.1276513837	2443.005697427361	274.7710148706544	1057.119294881777	2408.013924417321	597.4732966842379	1127.810926121384	2360.836033875344	569.5588838950515	1078.997522008113	2341.959742834432	684.466645442363	1137.94841519217	2296.267822971942	658.2920793887837	1094.181020964369	
3	0.01333333333333333	2376.002581977673	928.4949025029197	854.693707681163	1627.035175580845	463.8548348035022	899.2242447644968	1634.017909221968	424.1623776216933	861.2102899427566	1674.976384658661	448.6152819423991	897.6910302118646	2348.902033949932	1032.288185857613	826.26224041912	1610.219445304079	265.253117115138	881.7540892977814	2214.394686471961	1008.56594843082	911.4868012455494	1744.041855584873	415.1307048235332	854.857856646243	1731.434592761199	448.9655304603689	894.8133403057967	1813.868116467818	452.4642339194615	843.1176797244732	1801.362895785796	488.2082598090139	881.1556035869477	2107.287342597344	588.3253787454022	829.2574927610121	2054.966244616401	614.4217530041441	872.8732296615192	2138.654038050052	692.5466966141793	809.9441591846798	2091.085212785213	716.7384006796034	852.8075311605824	2361.000540384386	944.6258206641802	1077.398487991949	2643.39064795501	126.8441863336704	1039.207184099409	2476.325610038362	50.25701073996385	994.4202586505205	2496.198574884752	60.6556123611734	1044.82323280539	2478.562590678985	97.55670059966506	1007.269153068297	2290.759381052161	1033.377745703707	1118.674932596811	2685.081354142867	96.11422624850638	978.9983889641001	2656.923512525277	60.61113582803504	1083.320129071358	2204.264325366282	1010.341424763703	1011.203193858646	2510.372047393409	198.9519000802998	1072.914699803289	2470.918684982519	193.9684786806576	1040.142599261437	2482.394375862174	277.4278788803605	1090.5884429342	2443.099823663007	268.4912721046362	1054.673708726028	2401.905487806901	592.2940038823092	1127.551797028507	2354.806001425361	565.7257806437573	1077.928732435397	2337.752913536709	680.7312779341833	1137.304469485528	2291.841471617008	655.6709790672547	1093.144700575359	
4	0.02	2377.498530350719	926.3718422182912	854.6793592518311	1635.460596316311	481.1901694432324	900.177176584521	1638.062591007445	441.0919500081148	861.8781447741346	1682.143801542554	462.4628370329896	897.0472908142835	2349.517975842365	1030.655366132508	826.036466371406	1602.84382901321	284.6009169655795	882.8940506499683	2215.377230969672	1005.269507006159	910.0285564551427	1746.802180719122	425.69948302941	854.435585157635	1736.225907444898	459.3722272013686	895.237236061732	1818.448144717022	459.5466376250329	843.0616822240338	1808.108322044875	495.0378755095697	881.9454319946219	2112.664239692755	582.0448720345152	829.0342478732905	2061.234546517918	606.685174451253	874.4810670525355	2141.888873657017	687.0498878769768	810.7166964128934	2095.379025589298	709.8649240873239	855.2260342551488	2360.886310068745	943.6288001995074	1076.987158601091	2645.896296559992	122.6561862140179	1037.484450118701	2479.159667785755	46.90643775024296	990.7933926521016	2498.803162175156	56.26803898752276	1041.593724606279	2481.237934664527	93.97376173565175	1004.801147930569	2290.418200570779	1032.92029132828	1117.800128978441	2687.864635055457	93.55126661854247	976.872849828064	2659.521677967922	55.98876891683248	1080.751210997047	2204.55176563491	1008.07511412094	1009.792403717568	2510.531291043025	194.133442254701	1071.272842933106	2471.61187668476	188.5557336121031	1037.792174921382	2480.667672902021	272.1649792107544	1088.895657647177	2442.077380274982	262.6432257925493	1052.226239909967	2396.500302234907	587.377348073878	1127.181339054624	2349.437042989167	561.934529250323	1076.914060672274	2333.963897982889	677.0407355148847	1136.621079001379	2287.846130820984	652.9169174859122	1092.152195482427	
5	0.02666666666666667	2378.773838079358	923.8103180619273	854.7875958915948	1645.374433429764	497.1938634099307	901.407849455289	1643.967875187991	457.0379568644664	862.721978773752	1690.679046769643	475.1485107852268	896.827583297283	2350.272350642795	1028.354298639224	825.8406225756003	1597.69032368928	303.33942989371	883.4285991874589	2216.085966957985	1001.40869777039	908.6456513031515	1750.901791653838	435.3871994757959	854.1423656993506	1742.318697244563	468.866025688011	895.6653707661823	1824.205840532659	465.659084300869	843.0762318382161	1815.984799242253	500.8759690665213	882.7369626103665	2118.318288729601	575.2871367236447	828.6316151621726	2067.739941435706	598.4063402622335	875.8286555193613	2145.311622085078	681.0495323603578	811.3592289820049	2099.77357474071	702.4430680740882	857.4361719540352	2360.53836668662	942.2391587208554	1076.828520807686	2644.81469186915	118.0962913452389	1035.284441303715	2478.018485735412	43.78774710488285	987.1250884863435	2497.450823427575	52.41878044866257	1038.226041746159	2480.276113430429	90.69124201405549	1001.849561349297	2289.708256207061	1031.812382743835	1116.980923011293	2686.985411294111	89.86062975263381	974.5332119253356	2658.112629720679	51.54425985627725	1078.312003168164	2204.501186610423	1005.159709325427	1008.423088550651	2508.412868318069	189.2336231259384	1069.196783633395	2469.829217165317	183.5355214325517	1035.228565053929	2477.640429677419	267.0105777542121	1086.991546773186	2439.523464170917	257.4201829592603	1049.782367865814	2392.06397314173	582.8122843935631	1126.659341675985	2344.983568213716	558.1978804938094	1075.96606692752	2330.753325363672	673.4047127925878	1135.888967948092	2284.447218486506	649.9765274323508	1091.221813773913	
